<?xml version="1.0" encoding="utf-8"?><svg xml:space="preserve" viewBox="0 0 100 100" y="0" x="0" xmlns="http://www.w3.org/2000/svg" id="Layer_1" version="1.1" width="200px" height="200px" xmlns:xlink="http://www.w3.org/1999/xlink" style="width:100%;height:100%;background-size:initial;background-repeat-y:initial;background-repeat-x:initial;background-position-y:initial;background-position-x:initial;background-origin:initial;background-image:initial;background-color:rgb(255, 255, 255);background-clip:initial;background-attachment:initial;animation-play-state:paused" ><g class="ldl-scale" style="transform-origin:50% 50%;transform:rotate(0deg) scale(0.8, 0.8);animation-play-state:paused" ><path fill="#d65a62" d="M73.6 23.3l4.8-2.7c.8-.5 1.9-.2 2.4.6s.2 1.9-.6 2.4l-4.7 2.7c-.5.3-1.1.1-1.4-.4-.2-.4-.4-.8-.7-1.1-.4-.6-.3-1.2.2-1.5z" style="fill:rgb(255, 228, 110);animation-play-state:paused" ></path>
<path fill="#d65a62" d="M68.9 19.7c-.3-.3-.7-.6-1-.8-.5-.4-.6-1-.2-1.5l3.5-4.2c.6-.7 1.7-.8 2.4-.2.7.6.8 1.7.2 2.4l-3.5 4.2c-.3.4-.9.5-1.4.1z" style="fill:rgb(255, 228, 110);animation-play-state:paused" ></path>
<path fill="#d65a62" d="M62.1 15.6c-.4-.2-.8-.3-1.2-.4-.6-.2-.9-.8-.7-1.3L62 8.6c.3-.9 1.3-1.4 2.2-1 .9.3 1.4 1.3 1 2.2L63.4 15c-.2.5-.8.8-1.3.6z" style="fill:rgb(255, 228, 110);animation-play-state:paused" ></path>
<path fill="#e0e0e0" d="M53.3 22.3h-.8v7.4c-.8-.2-1.6-.4-2.4-.4H50c-.8 0-1.7.1-2.4.4v-7.4h-.8c-8.2 0-14.9 6.7-14.9 14.9v7h10.2v5H31.8V69c0 4.9 1.9 9.6 5.4 13.1 3.5 3.6 8 5.5 12.8 5.5h.3c9.8-.2 17.8-8.3 17.8-18.2V49.2H57.9v-5h10.2v-7c.1-8.2-6.6-14.9-14.8-14.9zM55 51.6c0 2.7-2.2 5-5 5-2.7 0-5-2.2-5-5V37.3c0-2.7 2.2-5 5-5h.1c2.7 0 5 2.2 5 5v14.3z" style="fill:rgb(224, 224, 224);animation-play-state:paused" ></path>
<path fill="#353035" d="M50.1 32.3H50c-2.7 0-5 2.2-5 5v14.4c0 2.7 2.2 5 5 5h.1c2.7 0 5-2.2 5-5V37.3c-.1-2.8-2.3-5-5-5z" style="fill:rgb(53, 48, 53);animation-play-state:paused" ></path>
<path fill="#010101" d="M53.3 17.4h-6.6c-10.9 0-19.8 8.9-19.8 19.8V69c0 6.2 2.4 12.1 6.8 16.6 4.4 4.5 10.2 7 16.4 7h.4C63 92.4 73.2 82 73.2 69.5V37.2c-.1-10.9-9-19.8-19.9-19.8zm14.9 26.8H57.9v5h10.2v20.2c0 9.8-8 18-17.8 18.2H50c-4.8 0-9.4-2-12.8-5.5-3.5-3.6-5.4-8.2-5.4-13.1V49.2H42v-5H31.8v-7c0-8.2 6.7-14.9 14.9-14.9h.8v7.4c.8-.2 1.6-.4 2.4-.4h.1c.8 0 1.7.1 2.4.4v-7.4h.8c8.2 0 14.9 6.7 14.9 14.9v7z" style="fill:rgb(1, 1, 1);animation-play-state:paused" ></path>
<metadata xmlns:d="https://loading.io/stock/" style="animation-play-state:paused" ><d:name style="animation-play-state:paused" >right click</d:name>


<d:tags style="animation-play-state:paused" >control,move,input,wheel,scroll,right click,web application</d:tags>


<d:license style="animation-play-state:paused" >by</d:license>


<d:slug style="animation-play-state:paused" >t8db0q</d:slug></metadata></g><!-- generated by https://loading.io/ --></svg>